<svg width="49" height="48" viewBox="0 0 49 48" fill="none" xmlns="http://www.w3.org/2000/svg">
<rect x="0.666748" width="48" height="48" rx="24" fill="#72ECA3" fill-opacity="0.5"/>
<path d="M22.4112 14.5379C23.0692 13.9779 23.3982 13.6979 23.7412 13.5334C24.1341 13.3456 24.564 13.248 24.9995 13.248C25.4349 13.248 25.8649 13.3456 26.2577 13.5334C26.6019 13.6967 26.9309 13.9767 27.5877 14.5379C27.8502 14.7619 27.9809 14.8727 28.1209 14.9661C28.4415 15.1809 28.8016 15.3301 29.1802 15.4047C29.3447 15.4374 29.5162 15.4514 29.8592 15.4794C30.7214 15.5471 31.1519 15.5821 31.5112 15.7092C31.9217 15.8541 32.2945 16.0889 32.6023 16.3966C32.9102 16.7043 33.1453 17.0769 33.2904 17.4872C33.4176 17.8477 33.4514 18.2782 33.5202 19.1392C33.5471 19.4822 33.5611 19.6537 33.5937 19.8194C33.6684 20.1974 33.8177 20.5579 34.0324 20.8776C34.1257 21.0176 34.2377 21.1482 34.4606 21.4107C35.0206 22.0687 35.3017 22.3977 35.4662 22.7407C35.6541 23.1336 35.7516 23.5635 35.7516 23.999C35.7516 24.4345 35.6541 24.8644 35.4662 25.2572C35.3029 25.6002 35.0217 25.9292 34.4606 26.5872C34.308 26.7569 34.1651 26.9349 34.0324 27.1204C33.8176 27.4406 33.6685 27.8003 33.5937 28.1786C33.5611 28.3442 33.5471 28.5157 33.5202 28.8587C33.4514 29.7197 33.4176 30.1514 33.2904 30.5107C33.1453 30.9211 32.9102 31.2937 32.6023 31.6014C32.2945 31.909 31.9217 32.1439 31.5112 32.2887C31.1519 32.4171 30.7214 32.4509 29.8592 32.5186C29.5162 32.5466 29.3459 32.5606 29.1802 32.5932C28.8016 32.6679 28.4415 32.817 28.1209 33.0319C27.9357 33.1646 27.7581 33.3076 27.5889 33.4601C26.9309 34.0201 26.6019 34.3001 26.2589 34.4646C25.866 34.6524 25.4361 34.7499 25.0007 34.7499C24.5652 34.7499 24.1353 34.6524 23.7424 34.4646C23.3982 34.3012 23.0692 34.0212 22.4124 33.4601C22.2428 33.3076 22.0648 33.1646 21.8792 33.0319C21.5586 32.817 21.1986 32.6679 20.8199 32.5932C20.5951 32.5558 20.3684 32.5309 20.1409 32.5186C19.2787 32.4509 18.8482 32.4159 18.4889 32.2887C18.0785 32.1439 17.7057 31.909 17.3978 31.6014C17.0899 31.2937 16.8548 30.9211 16.7097 30.5107C16.5826 30.1514 16.5487 29.7197 16.4799 28.8587C16.4682 28.6308 16.4437 28.4037 16.4064 28.1786C16.3316 27.8003 16.1825 27.4407 15.9677 27.1204C15.8744 26.9804 15.7624 26.8497 15.5396 26.5872C14.9796 25.9292 14.6984 25.6002 14.5339 25.2572C14.346 24.8644 14.2485 24.4345 14.2485 23.999C14.2485 23.5635 14.346 23.1336 14.5339 22.7407C14.6984 22.3977 14.9784 22.0687 15.5396 21.4107C15.7624 21.1482 15.8744 21.0176 15.9677 20.8776C16.1825 20.5573 16.3316 20.1977 16.4064 19.8194C16.4391 19.6537 16.4531 19.4822 16.4799 19.1392C16.5487 18.2782 16.5826 17.8477 16.7097 17.4872C16.855 17.0768 17.0902 16.7041 17.3983 16.3964C17.7064 16.0887 18.0794 15.8539 18.4901 15.7092C18.8494 15.5821 19.2799 15.5471 20.1421 15.4794C20.4851 15.4514 20.6554 15.4374 20.8211 15.4047C21.1997 15.3301 21.5598 15.1809 21.8804 14.9661C22.0204 14.8727 22.1499 14.7619 22.4112 14.5379Z" stroke="#00746F" stroke-width="1.5"/>
<path d="M21.5001 27.5L28.5001 20.5" stroke="#00746F" stroke-width="1.5" stroke-linecap="round"/>
<path d="M29.0834 26.916C29.0834 27.2254 28.9605 27.5222 28.7417 27.741C28.5229 27.9598 28.2262 28.0827 27.9167 28.0827C27.6073 28.0827 27.3106 27.9598 27.0918 27.741C26.873 27.5222 26.7501 27.2254 26.7501 26.916C26.7501 26.6066 26.873 26.3099 27.0918 26.0911C27.3106 25.8723 27.6073 25.7493 27.9167 25.7493C28.2262 25.7493 28.5229 25.8723 28.7417 26.0911C28.9605 26.3099 29.0834 26.6066 29.0834 26.916ZM23.2501 21.0827C23.2501 21.3921 23.1272 21.6888 22.9084 21.9076C22.6896 22.1264 22.3928 22.2493 22.0834 22.2493C21.774 22.2493 21.4772 22.1264 21.2585 21.9076C21.0397 21.6888 20.9167 21.3921 20.9167 21.0827C20.9167 20.7733 21.0397 20.4765 21.2585 20.2577C21.4772 20.0389 21.774 19.916 22.0834 19.916C22.3928 19.916 22.6896 20.0389 22.9084 20.2577C23.1272 20.4765 23.2501 20.7733 23.2501 21.0827Z" fill="#00746F"/>
</svg>
