<svg width="59" height="10" viewBox="0 0 59 10" fill="none" xmlns="http://www.w3.org/2000/svg">
<path d="M5.41927 0.373444C5.60267 0.00182116 6.1326 0.00182053 6.316 0.373443L7.51465 2.80218C7.58749 2.94975 7.72827 3.05203 7.89112 3.0757L10.5714 3.46516C10.9815 3.52476 11.1453 4.02874 10.8485 4.31801L8.90904 6.20852C8.79119 6.32339 8.73742 6.48889 8.76524 6.65108L9.22308 9.32052C9.29314 9.72897 8.86442 10.0405 8.49761 9.84761L6.1003 8.58727C5.95464 8.51069 5.78062 8.51069 5.63496 8.58727L3.23766 9.84761C2.87085 10.0405 2.44213 9.72898 2.51218 9.32052L2.97003 6.65108C2.99785 6.48889 2.94407 6.32339 2.82623 6.20852L0.88677 4.31801C0.590012 4.02874 0.753766 3.52476 1.16388 3.46516L3.84414 3.0757C4.007 3.05203 4.14778 2.94975 4.22061 2.80218L5.41927 0.373444ZM17.4193 0.373444C17.6027 0.00182116 18.1326 0.00182053 18.316 0.373443L19.5147 2.80218C19.5875 2.94975 19.7283 3.05203 19.8911 3.0757L22.5714 3.46516C22.9815 3.52476 23.1453 4.02874 22.8485 4.31801L20.909 6.20852C20.7912 6.32339 20.7374 6.48889 20.7652 6.65108L21.2231 9.32052C21.2931 9.72897 20.8644 10.0405 20.4976 9.84761L18.1003 8.58727C17.9546 8.51069 17.7806 8.51069 17.635 8.58727L15.2377 9.84761C14.8708 10.0405 14.4421 9.72898 14.5122 9.32052L14.97 6.65108C14.9978 6.48889 14.9441 6.32339 14.8262 6.20852L12.8868 4.31801C12.59 4.02874 12.7538 3.52476 13.1639 3.46516L15.8441 3.0757C16.007 3.05203 16.1478 2.94975 16.2206 2.80218L17.4193 0.373444ZM29.4193 0.373444C29.6027 0.00182116 30.1326 0.00182053 30.316 0.373443L31.5147 2.80218C31.5875 2.94975 31.7283 3.05203 31.8911 3.0757L34.5714 3.46516C34.9815 3.52476 35.1453 4.02874 34.8485 4.31801L32.909 6.20852C32.7912 6.32339 32.7374 6.48889 32.7652 6.65108L33.2231 9.32052C33.2931 9.72897 32.8644 10.0405 32.4976 9.84761L30.1003 8.58727C29.9546 8.51069 29.7806 8.51069 29.635 8.58727L27.2377 9.84761C26.8708 10.0405 26.4421 9.72898 26.5122 9.32052L26.97 6.65108C26.9978 6.48889 26.9441 6.32339 26.8262 6.20852L24.8868 4.31801C24.59 4.02874 24.7538 3.52476 25.1639 3.46516L27.8441 3.0757C28.007 3.05203 28.1478 2.94975 28.2206 2.80218L29.4193 0.373444ZM41.4193 0.373444C41.6027 0.00182116 42.1326 0.00182053 42.316 0.373443L43.5147 2.80218C43.5875 2.94975 43.7283 3.05203 43.8911 3.0757L46.5714 3.46516C46.9815 3.52476 47.1453 4.02874 46.8485 4.31801L44.909 6.20852C44.7912 6.32339 44.7374 6.48889 44.7652 6.65108L45.2231 9.32052C45.2931 9.72897 44.8644 10.0405 44.4976 9.84761L42.1003 8.58727C41.9546 8.51069 41.7806 8.51069 41.635 8.58727L39.2377 9.84761C38.8708 10.0405 38.4421 9.72898 38.5122 9.32052L38.97 6.65108C38.9978 6.48889 38.9441 6.32339 38.8262 6.20852L36.8868 4.31801C36.59 4.02874 36.7538 3.52476 37.1639 3.46516L39.8441 3.0757C40.007 3.05203 40.1478 2.94975 40.2206 2.80218L41.4193 0.373444ZM53.4193 0.373444C53.6027 0.00182116 54.1326 0.00182053 54.316 0.373443L55.5147 2.80218C55.5875 2.94975 55.7283 3.05203 55.8911 3.0757L58.5714 3.46516C58.9815 3.52476 59.1453 4.02874 58.8485 4.31801L56.909 6.20852C56.7912 6.32339 56.7374 6.48889 56.7652 6.65108L57.2231 9.32052C57.2931 9.72897 56.8644 10.0405 56.4976 9.84761L54.1003 8.58727C53.9546 8.51069 53.7806 8.51069 53.635 8.58727L51.2377 9.84761C50.8708 10.0405 50.4421 9.72898 50.5122 9.32052L50.97 6.65108C50.9978 6.48889 50.9441 6.32339 50.8262 6.20852L48.8868 4.31801C48.59 4.02874 48.7538 3.52476 49.1639 3.46516L51.8441 3.0757C52.007 3.05203 52.1478 2.94975 52.2206 2.80218L53.4193 0.373444Z" fill="#FFC700"/>
<path d="M5.41927 0.373444C5.60267 0.00182116 6.1326 0.00182053 6.316 0.373443L7.51465 2.80218C7.58749 2.94975 7.72827 3.05203 7.89112 3.0757L10.5714 3.46516C10.9815 3.52476 11.1453 4.02874 10.8485 4.31801L8.90904 6.20852C8.79119 6.32339 8.73742 6.48889 8.76524 6.65108L9.22308 9.32052C9.29314 9.72897 8.86442 10.0405 8.49761 9.84761L6.1003 8.58727C5.95464 8.51069 5.78062 8.51069 5.63496 8.58727L3.23766 9.84761C2.87085 10.0405 2.44213 9.72898 2.51218 9.32052L2.97003 6.65108C2.99785 6.48889 2.94407 6.32339 2.82623 6.20852L0.88677 4.31801C0.590012 4.02874 0.753766 3.52476 1.16388 3.46516L3.84414 3.0757C4.007 3.05203 4.14778 2.94975 4.22061 2.80218L5.41927 0.373444ZM17.4193 0.373444C17.6027 0.00182116 18.1326 0.00182053 18.316 0.373443L19.5147 2.80218C19.5875 2.94975 19.7283 3.05203 19.8911 3.0757L22.5714 3.46516C22.9815 3.52476 23.1453 4.02874 22.8485 4.31801L20.909 6.20852C20.7912 6.32339 20.7374 6.48889 20.7652 6.65108L21.2231 9.32052C21.2931 9.72897 20.8644 10.0405 20.4976 9.84761L18.1003 8.58727C17.9546 8.51069 17.7806 8.51069 17.635 8.58727L15.2377 9.84761C14.8708 10.0405 14.4421 9.72898 14.5122 9.32052L14.97 6.65108C14.9978 6.48889 14.9441 6.32339 14.8262 6.20852L12.8868 4.31801C12.59 4.02874 12.7538 3.52476 13.1639 3.46516L15.8441 3.0757C16.007 3.05203 16.1478 2.94975 16.2206 2.80218L17.4193 0.373444ZM29.4193 0.373444C29.6027 0.00182116 30.1326 0.00182053 30.316 0.373443L31.5147 2.80218C31.5875 2.94975 31.7283 3.05203 31.8911 3.0757L34.5714 3.46516C34.9815 3.52476 35.1453 4.02874 34.8485 4.31801L32.909 6.20852C32.7912 6.32339 32.7374 6.48889 32.7652 6.65108L33.2231 9.32052C33.2931 9.72897 32.8644 10.0405 32.4976 9.84761L30.1003 8.58727C29.9546 8.51069 29.7806 8.51069 29.635 8.58727L27.2377 9.84761C26.8708 10.0405 26.4421 9.72898 26.5122 9.32052L26.97 6.65108C26.9978 6.48889 26.9441 6.32339 26.8262 6.20852L24.8868 4.31801C24.59 4.02874 24.7538 3.52476 25.1639 3.46516L27.8441 3.0757C28.007 3.05203 28.1478 2.94975 28.2206 2.80218L29.4193 0.373444ZM41.4193 0.373444C41.6027 0.00182116 42.1326 0.00182053 42.316 0.373443L43.5147 2.80218C43.5875 2.94975 43.7283 3.05203 43.8911 3.0757L46.5714 3.46516C46.9815 3.52476 47.1453 4.02874 46.8485 4.31801L44.909 6.20852C44.7912 6.32339 44.7374 6.48889 44.7652 6.65108L45.2231 9.32052C45.2931 9.72897 44.8644 10.0405 44.4976 9.84761L42.1003 8.58727C41.9546 8.51069 41.7806 8.51069 41.635 8.58727L39.2377 9.84761C38.8708 10.0405 38.4421 9.72898 38.5122 9.32052L38.97 6.65108C38.9978 6.48889 38.9441 6.32339 38.8262 6.20852L36.8868 4.31801C36.59 4.02874 36.7538 3.52476 37.1639 3.46516L39.8441 3.0757C40.007 3.05203 40.1478 2.94975 40.2206 2.80218L41.4193 0.373444ZM53.4193 0.373444C53.6027 0.00182116 54.1326 0.00182053 54.316 0.373443L55.5147 2.80218C55.5875 2.94975 55.7283 3.05203 55.8911 3.0757L58.5714 3.46516C58.9815 3.52476 59.1453 4.02874 58.8485 4.31801L56.909 6.20852C56.7912 6.32339 56.7374 6.48889 56.7652 6.65108L57.2231 9.32052C57.2931 9.72897 56.8644 10.0405 56.4976 9.84761L54.1003 8.58727C53.9546 8.51069 53.7806 8.51069 53.635 8.58727L51.2377 9.84761C50.8708 10.0405 50.4421 9.72898 50.5122 9.32052L50.97 6.65108C50.9978 6.48889 50.9441 6.32339 50.8262 6.20852L48.8868 4.31801C48.59 4.02874 48.7538 3.52476 49.1639 3.46516L51.8441 3.0757C52.007 3.05203 52.1478 2.94975 52.2206 2.80218L53.4193 0.373444Z" fill="#FFC700"/>
<path d="M5.41927 0.373444C5.60267 0.00182116 6.1326 0.00182053 6.316 0.373443L7.51465 2.80218C7.58749 2.94975 7.72827 3.05203 7.89112 3.0757L10.5714 3.46516C10.9815 3.52476 11.1453 4.02874 10.8485 4.31801L8.90904 6.20852C8.79119 6.32339 8.73742 6.48889 8.76524 6.65108L9.22308 9.32052C9.29314 9.72897 8.86442 10.0405 8.49761 9.84761L6.1003 8.58727C5.95464 8.51069 5.78062 8.51069 5.63496 8.58727L3.23766 9.84761C2.87085 10.0405 2.44213 9.72898 2.51218 9.32052L2.97003 6.65108C2.99785 6.48889 2.94407 6.32339 2.82623 6.20852L0.88677 4.31801C0.590012 4.02874 0.753766 3.52476 1.16388 3.46516L3.84414 3.0757C4.007 3.05203 4.14778 2.94975 4.22061 2.80218L5.41927 0.373444ZM17.4193 0.373444C17.6027 0.00182116 18.1326 0.00182053 18.316 0.373443L19.5147 2.80218C19.5875 2.94975 19.7283 3.05203 19.8911 3.0757L22.5714 3.46516C22.9815 3.52476 23.1453 4.02874 22.8485 4.31801L20.909 6.20852C20.7912 6.32339 20.7374 6.48889 20.7652 6.65108L21.2231 9.32052C21.2931 9.72897 20.8644 10.0405 20.4976 9.84761L18.1003 8.58727C17.9546 8.51069 17.7806 8.51069 17.635 8.58727L15.2377 9.84761C14.8708 10.0405 14.4421 9.72898 14.5122 9.32052L14.97 6.65108C14.9978 6.48889 14.9441 6.32339 14.8262 6.20852L12.8868 4.31801C12.59 4.02874 12.7538 3.52476 13.1639 3.46516L15.8441 3.0757C16.007 3.05203 16.1478 2.94975 16.2206 2.80218L17.4193 0.373444ZM29.4193 0.373444C29.6027 0.00182116 30.1326 0.00182053 30.316 0.373443L31.5147 2.80218C31.5875 2.94975 31.7283 3.05203 31.8911 3.0757L34.5714 3.46516C34.9815 3.52476 35.1453 4.02874 34.8485 4.31801L32.909 6.20852C32.7912 6.32339 32.7374 6.48889 32.7652 6.65108L33.2231 9.32052C33.2931 9.72897 32.8644 10.0405 32.4976 9.84761L30.1003 8.58727C29.9546 8.51069 29.7806 8.51069 29.635 8.58727L27.2377 9.84761C26.8708 10.0405 26.4421 9.72898 26.5122 9.32052L26.97 6.65108C26.9978 6.48889 26.9441 6.32339 26.8262 6.20852L24.8868 4.31801C24.59 4.02874 24.7538 3.52476 25.1639 3.46516L27.8441 3.0757C28.007 3.05203 28.1478 2.94975 28.2206 2.80218L29.4193 0.373444ZM41.4193 0.373444C41.6027 0.00182116 42.1326 0.00182053 42.316 0.373443L43.5147 2.80218C43.5875 2.94975 43.7283 3.05203 43.8911 3.0757L46.5714 3.46516C46.9815 3.52476 47.1453 4.02874 46.8485 4.31801L44.909 6.20852C44.7912 6.32339 44.7374 6.48889 44.7652 6.65108L45.2231 9.32052C45.2931 9.72897 44.8644 10.0405 44.4976 9.84761L42.1003 8.58727C41.9546 8.51069 41.7806 8.51069 41.635 8.58727L39.2377 9.84761C38.8708 10.0405 38.4421 9.72898 38.5122 9.32052L38.97 6.65108C38.9978 6.48889 38.9441 6.32339 38.8262 6.20852L36.8868 4.31801C36.59 4.02874 36.7538 3.52476 37.1639 3.46516L39.8441 3.0757C40.007 3.05203 40.1478 2.94975 40.2206 2.80218L41.4193 0.373444ZM53.4193 0.373444C53.6027 0.00182116 54.1326 0.00182053 54.316 0.373443L55.5147 2.80218C55.5875 2.94975 55.7283 3.05203 55.8911 3.0757L58.5714 3.46516C58.9815 3.52476 59.1453 4.02874 58.8485 4.31801L56.909 6.20852C56.7912 6.32339 56.7374 6.48889 56.7652 6.65108L57.2231 9.32052C57.2931 9.72897 56.8644 10.0405 56.4976 9.84761L54.1003 8.58727C53.9546 8.51069 53.7806 8.51069 53.635 8.58727L51.2377 9.84761C50.8708 10.0405 50.4421 9.72898 50.5122 9.32052L50.97 6.65108C50.9978 6.48889 50.9441 6.32339 50.8262 6.20852L48.8868 4.31801C48.59 4.02874 48.7538 3.52476 49.1639 3.46516L51.8441 3.0757C52.007 3.05203 52.1478 2.94975 52.2206 2.80218L53.4193 0.373444Z" fill="#FFC700"/>
<path d="M5.41927 0.373444C5.60267 0.00182116 6.1326 0.00182053 6.316 0.373443L7.51465 2.80218C7.58749 2.94975 7.72827 3.05203 7.89112 3.0757L10.5714 3.46516C10.9815 3.52476 11.1453 4.02874 10.8485 4.31801L8.90904 6.20852C8.79119 6.32339 8.73742 6.48889 8.76524 6.65108L9.22308 9.32052C9.29314 9.72897 8.86442 10.0405 8.49761 9.84761L6.1003 8.58727C5.95464 8.51069 5.78062 8.51069 5.63496 8.58727L3.23766 9.84761C2.87085 10.0405 2.44213 9.72898 2.51218 9.32052L2.97003 6.65108C2.99785 6.48889 2.94407 6.32339 2.82623 6.20852L0.88677 4.31801C0.590012 4.02874 0.753766 3.52476 1.16388 3.46516L3.84414 3.0757C4.007 3.05203 4.14778 2.94975 4.22061 2.80218L5.41927 0.373444ZM17.4193 0.373444C17.6027 0.00182116 18.1326 0.00182053 18.316 0.373443L19.5147 2.80218C19.5875 2.94975 19.7283 3.05203 19.8911 3.0757L22.5714 3.46516C22.9815 3.52476 23.1453 4.02874 22.8485 4.31801L20.909 6.20852C20.7912 6.32339 20.7374 6.48889 20.7652 6.65108L21.2231 9.32052C21.2931 9.72897 20.8644 10.0405 20.4976 9.84761L18.1003 8.58727C17.9546 8.51069 17.7806 8.51069 17.635 8.58727L15.2377 9.84761C14.8708 10.0405 14.4421 9.72898 14.5122 9.32052L14.97 6.65108C14.9978 6.48889 14.9441 6.32339 14.8262 6.20852L12.8868 4.31801C12.59 4.02874 12.7538 3.52476 13.1639 3.46516L15.8441 3.0757C16.007 3.05203 16.1478 2.94975 16.2206 2.80218L17.4193 0.373444ZM29.4193 0.373444C29.6027 0.00182116 30.1326 0.00182053 30.316 0.373443L31.5147 2.80218C31.5875 2.94975 31.7283 3.05203 31.8911 3.0757L34.5714 3.46516C34.9815 3.52476 35.1453 4.02874 34.8485 4.31801L32.909 6.20852C32.7912 6.32339 32.7374 6.48889 32.7652 6.65108L33.2231 9.32052C33.2931 9.72897 32.8644 10.0405 32.4976 9.84761L30.1003 8.58727C29.9546 8.51069 29.7806 8.51069 29.635 8.58727L27.2377 9.84761C26.8708 10.0405 26.4421 9.72898 26.5122 9.32052L26.97 6.65108C26.9978 6.48889 26.9441 6.32339 26.8262 6.20852L24.8868 4.31801C24.59 4.02874 24.7538 3.52476 25.1639 3.46516L27.8441 3.0757C28.007 3.05203 28.1478 2.94975 28.2206 2.80218L29.4193 0.373444ZM41.4193 0.373444C41.6027 0.00182116 42.1326 0.00182053 42.316 0.373443L43.5147 2.80218C43.5875 2.94975 43.7283 3.05203 43.8911 3.0757L46.5714 3.46516C46.9815 3.52476 47.1453 4.02874 46.8485 4.31801L44.909 6.20852C44.7912 6.32339 44.7374 6.48889 44.7652 6.65108L45.2231 9.32052C45.2931 9.72897 44.8644 10.0405 44.4976 9.84761L42.1003 8.58727C41.9546 8.51069 41.7806 8.51069 41.635 8.58727L39.2377 9.84761C38.8708 10.0405 38.4421 9.72898 38.5122 9.32052L38.97 6.65108C38.9978 6.48889 38.9441 6.32339 38.8262 6.20852L36.8868 4.31801C36.59 4.02874 36.7538 3.52476 37.1639 3.46516L39.8441 3.0757C40.007 3.05203 40.1478 2.94975 40.2206 2.80218L41.4193 0.373444ZM53.4193 0.373444C53.6027 0.00182116 54.1326 0.00182053 54.316 0.373443L55.5147 2.80218C55.5875 2.94975 55.7283 3.05203 55.8911 3.0757L58.5714 3.46516C58.9815 3.52476 59.1453 4.02874 58.8485 4.31801L56.909 6.20852C56.7912 6.32339 56.7374 6.48889 56.7652 6.65108L57.2231 9.32052C57.2931 9.72897 56.8644 10.0405 56.4976 9.84761L54.1003 8.58727C53.9546 8.51069 53.7806 8.51069 53.635 8.58727L51.2377 9.84761C50.8708 10.0405 50.4421 9.72898 50.5122 9.32052L50.97 6.65108C50.9978 6.48889 50.9441 6.32339 50.8262 6.20852L48.8868 4.31801C48.59 4.02874 48.7538 3.52476 49.1639 3.46516L51.8441 3.0757C52.007 3.05203 52.1478 2.94975 52.2206 2.80218L53.4193 0.373444Z" fill="#FFC700"/>
<path d="M5.41927 0.373444C5.60267 0.00182116 6.1326 0.00182053 6.316 0.373443L7.51465 2.80218C7.58749 2.94975 7.72827 3.05203 7.89112 3.0757L10.5714 3.46516C10.9815 3.52476 11.1453 4.02874 10.8485 4.31801L8.90904 6.20852C8.79119 6.32339 8.73742 6.48889 8.76524 6.65108L9.22308 9.32052C9.29314 9.72897 8.86442 10.0405 8.49761 9.84761L6.1003 8.58727C5.95464 8.51069 5.78062 8.51069 5.63496 8.58727L3.23766 9.84761C2.87085 10.0405 2.44213 9.72898 2.51218 9.32052L2.97003 6.65108C2.99785 6.48889 2.94407 6.32339 2.82623 6.20852L0.88677 4.31801C0.590012 4.02874 0.753766 3.52476 1.16388 3.46516L3.84414 3.0757C4.007 3.05203 4.14778 2.94975 4.22061 2.80218L5.41927 0.373444ZM17.4193 0.373444C17.6027 0.00182116 18.1326 0.00182053 18.316 0.373443L19.5147 2.80218C19.5875 2.94975 19.7283 3.05203 19.8911 3.0757L22.5714 3.46516C22.9815 3.52476 23.1453 4.02874 22.8485 4.31801L20.909 6.20852C20.7912 6.32339 20.7374 6.48889 20.7652 6.65108L21.2231 9.32052C21.2931 9.72897 20.8644 10.0405 20.4976 9.84761L18.1003 8.58727C17.9546 8.51069 17.7806 8.51069 17.635 8.58727L15.2377 9.84761C14.8708 10.0405 14.4421 9.72898 14.5122 9.32052L14.97 6.65108C14.9978 6.48889 14.9441 6.32339 14.8262 6.20852L12.8868 4.31801C12.59 4.02874 12.7538 3.52476 13.1639 3.46516L15.8441 3.0757C16.007 3.05203 16.1478 2.94975 16.2206 2.80218L17.4193 0.373444ZM29.4193 0.373444C29.6027 0.00182116 30.1326 0.00182053 30.316 0.373443L31.5147 2.80218C31.5875 2.94975 31.7283 3.05203 31.8911 3.0757L34.5714 3.46516C34.9815 3.52476 35.1453 4.02874 34.8485 4.31801L32.909 6.20852C32.7912 6.32339 32.7374 6.48889 32.7652 6.65108L33.2231 9.32052C33.2931 9.72897 32.8644 10.0405 32.4976 9.84761L30.1003 8.58727C29.9546 8.51069 29.7806 8.51069 29.635 8.58727L27.2377 9.84761C26.8708 10.0405 26.4421 9.72898 26.5122 9.32052L26.97 6.65108C26.9978 6.48889 26.9441 6.32339 26.8262 6.20852L24.8868 4.31801C24.59 4.02874 24.7538 3.52476 25.1639 3.46516L27.8441 3.0757C28.007 3.05203 28.1478 2.94975 28.2206 2.80218L29.4193 0.373444ZM41.4193 0.373444C41.6027 0.00182116 42.1326 0.00182053 42.316 0.373443L43.5147 2.80218C43.5875 2.94975 43.7283 3.05203 43.8911 3.0757L46.5714 3.46516C46.9815 3.52476 47.1453 4.02874 46.8485 4.31801L44.909 6.20852C44.7912 6.32339 44.7374 6.48889 44.7652 6.65108L45.2231 9.32052C45.2931 9.72897 44.8644 10.0405 44.4976 9.84761L42.1003 8.58727C41.9546 8.51069 41.7806 8.51069 41.635 8.58727L39.2377 9.84761C38.8708 10.0405 38.4421 9.72898 38.5122 9.32052L38.97 6.65108C38.9978 6.48889 38.9441 6.32339 38.8262 6.20852L36.8868 4.31801C36.59 4.02874 36.7538 3.52476 37.1639 3.46516L39.8441 3.0757C40.007 3.05203 40.1478 2.94975 40.2206 2.80218L41.4193 0.373444ZM53.4193 0.373444C53.6027 0.00182116 54.1326 0.00182053 54.316 0.373443L55.5147 2.80218C55.5875 2.94975 55.7283 3.05203 55.8911 3.0757L58.5714 3.46516C58.9815 3.52476 59.1453 4.02874 58.8485 4.31801L56.909 6.20852C56.7912 6.32339 56.7374 6.48889 56.7652 6.65108L57.2231 9.32052C57.2931 9.72897 56.8644 10.0405 56.4976 9.84761L54.1003 8.58727C53.9546 8.51069 53.7806 8.51069 53.635 8.58727L51.2377 9.84761C50.8708 10.0405 50.4421 9.72898 50.5122 9.32052L50.97 6.65108C50.9978 6.48889 50.9441 6.32339 50.8262 6.20852L48.8868 4.31801C48.59 4.02874 48.7538 3.52476 49.1639 3.46516L51.8441 3.0757C52.007 3.05203 52.1478 2.94975 52.2206 2.80218L53.4193 0.373444Z" fill="#FFC700"/>
</svg>
