<svg width="126" height="147" viewBox="0 0 126 147" fill="none" xmlns="http://www.w3.org/2000/svg">
<g clip-path="url(#clip0_1_1262)">
<path d="M63.1 48.1997C62.5 41.3797 68.6 40.2097 72.57 37.6597C75.64 35.6897 80.55 33.7197 83.05 37.3097C85.82 41.2897 87.6 46.5497 88.04 51.4197C89.22 64.3697 84.63 75.9397 77.38 86.4797C69.86 97.3997 61.16 107.03 49.17 113.43C46.25 114.99 44.15 118.51 42.27 121.5C39.36 126.13 37.13 131.2 34.26 135.86C33.07 137.79 30.98 139.17 29.3 140.8C28.68 140.54 28.07 140.28 27.45 140.02C27.69 138.02 27.44 135.78 28.27 134.07C31.34 127.84 34.63 121.71 38.14 115.71C39.45 113.47 41.28 111.31 43.37 109.79C49.53 105.31 56.12 101.42 62.15 96.7897C64.57 94.9297 65.92 91.7197 67.86 89.1997C74.49 80.6297 80.37 71.6197 81.47 60.5497C81.95 55.6697 81.38 50.6497 80.91 45.7397C80.53 41.6897 78.07 41.2997 74.94 43.2297C73.53 44.0997 72.3 45.3397 70.8 45.9797C69 46.7497 67.01 47.0697 65.69 47.4297C64.65 47.9597 64.02 48.2897 63.38 48.6097C63.3 48.4597 63.21 48.3097 63.11 48.1797L63.1 48.1997Z" fill="#45DD9F"/>
<path d="M35.18 21.2099C37.69 18.2099 39.68 14.3499 42.84 12.4099C48.45 8.96985 54.7 6.48985 60.88 4.11985C62.25 3.59985 64.44 5.21985 66.25 5.84985C64.94 7.21985 63.88 9.31985 62.29 9.83985C50.32 13.7699 39.94 20.1799 31.69 29.6299C17.74 45.6199 10.86 58.6099 6.65 80.0999C6.02 83.3299 6.72 86.8099 6.11 90.0399C5.79 91.7299 3.95 93.1299 2.79 94.6599C1.87 93.0999 0.25 91.5799 0.14 89.9599C-0.69 77.4899 2.42 65.5799 8.18 54.8399C13.86 44.2499 21.17 34.4999 28.15 24.6499C29.43 22.8499 32.53 22.3399 34.79 21.2299L34.97 21.0999L35.19 21.2099H35.18Z" fill="#45DD9F"/>
<path d="M83.64 16.2803C96.4 17.4203 102.81 22.3303 104.86 34.2703C107.8 51.3603 106.11 68.0503 99.24 84.0803C98.78 85.1503 98.42 86.4503 97.6 87.1203C96.4 88.1003 94.81 88.6003 93.39 89.3003C93.03 87.6203 91.85 85.5503 92.44 84.3303C98.34 72.1003 100.43 59.1803 99.99 45.7703C99.87 42.1303 99.56 38.4603 98.92 34.8803C97.42 26.5003 90.85 21.5103 82.16 23.4603C75.17 25.0203 68.56 28.3503 61.83 31.0103C60.47 31.5503 59.43 33.0003 58.06 33.3703C56.73 33.7303 55.17 33.2503 53.71 33.1303C54.01 31.6603 53.8 29.5603 54.71 28.8403C57.77 26.3903 60.99 23.8403 64.58 22.4103C70.76 19.9403 77.27 18.2803 83.64 16.2903V16.2803Z" fill="#45DD9F"/>
<path d="M20.13 105C20.13 95.5903 19.15 86.0503 20.37 76.7903C22.09 63.7803 29.31 53.0903 38.38 43.8003C39.39 42.7703 41.63 42.9503 43.29 42.5703C43.04 44.1203 43.25 45.9703 42.46 47.1803C37.89 54.2003 32.01 60.2403 29.04 68.4603C25.38 78.6003 24.09 88.7703 25.92 99.2803C27.4 107.78 25.69 115.42 20.84 122.41C16.73 128.33 9.14 128.3 5.75 121.98C3.76 118.27 2.9 113.9 1.99 109.72C1.73 108.54 3.12 107.01 3.75 105.64C5 106.66 6.77 107.43 7.4 108.75C8.68 111.42 9.16 114.46 10.31 117.21C11.98 121.21 14.55 121.54 16.58 117.69C18.61 113.85 19.68 109.5 21.17 105.38C20.82 105.26 20.47 105.13 20.11 105.01L20.13 105Z" fill="#45DD9F"/>
<path d="M63.1 48.2002C63.2 48.3402 63.29 48.4802 63.37 48.6302C62.02 51.3702 61.15 54.5202 59.25 56.7902C52.7 64.5802 46.01 72.2002 44.04 82.6402C43.72 84.3302 43.76 86.0802 43.64 87.8002C44.18 88.1702 44.72 88.5502 45.25 88.9202C47.61 86.5002 50.17 84.2402 52.27 81.6102C55.89 77.0702 59.11 72.2002 62.78 67.7002C63.53 66.7802 65.52 66.8702 66.93 66.4902C67.17 67.9602 68.15 70.0102 67.53 70.8102C61.55 78.4402 55.57 86.1102 48.94 93.1602C47.29 94.9102 42.93 95.5202 40.43 94.7202C36.43 93.4402 36.94 89.1602 37.27 85.6602C38.4 73.6502 44.64 64.1402 52.33 55.3802C54.3 53.1402 56.21 50.7902 58.52 48.9702C59.58 48.1302 61.55 48.4302 63.1 48.2202V48.2002Z" fill="#45DD9F"/>
<path d="M56.74 146.59C55.39 145.4 53.28 144.17 53.44 143.54C53.81 142.1 55.06 140.3 56.39 139.78C61.9 137.61 67.68 136.11 73.17 133.91C91.36 126.62 102.56 112.64 109.87 95.0196C111.16 91.9196 112.53 88.8296 114.14 85.8896C114.5 85.2296 116.72 84.7196 116.88 84.9496C117.68 86.1396 118.89 87.9096 118.5 88.9196C115.93 95.5696 113.68 102.48 110.03 108.53C102.34 121.26 92.28 131.92 78.48 138.23C71.59 141.38 64.33 143.7 56.74 146.59Z" fill="#45DD9F"/>
<path d="M125.3 46.7496C125.3 49.4096 125.7 52.1596 125.16 54.7096C124.78 56.4896 123.12 57.9996 122.03 59.6296C121.05 58.0096 119.34 56.4396 119.2 54.7496C118.59 47.3096 119.36 39.6496 117.91 32.4096C114.38 14.6996 109 8.06959 92.66 6.52959C91.01 6.36959 89.22 6.40959 87.76 5.75959C86.46 5.18959 85.53 3.79959 84.43 2.76959C85.63 1.79959 87.01 -0.170408 88 0.00959159C94.29 1.14959 100.89 1.86959 106.66 4.38959C121.74 10.9596 123.18 25.4396 125.26 39.2596C125.63 41.6996 125.31 44.2496 125.31 46.7496C125.31 46.7496 125.3 46.7496 125.29 46.7496H125.3Z" fill="#45DD9F"/>
<path d="M90.35 103.09C86.37 107.23 84.4 113.5 77.24 115.18C74.73 115.77 72.97 119.29 70.66 121.21C69.42 122.24 67.76 123.22 66.22 123.34C64.65 123.46 62.99 122.51 61.37 122.03C62.16 120.74 62.65 119.01 63.79 118.24C67.24 115.93 71.19 114.33 74.46 111.82C77.8 109.27 81.06 106.32 83.45 102.9C85.99 99.2695 87.73 98.8495 90.34 103.07L90.35 103.09Z" fill="#45DD9F"/>
<path d="M35.18 21.2096L34.96 21.0996L34.78 21.2296L35.18 21.2096Z" fill="#45DD9F"/>
</g>
<defs>
<clipPath id="clip0_1_1262">
<rect width="125.44" height="146.59" fill="white"/>
</clipPath>
</defs>
</svg>
