<svg width="49" height="48" viewBox="0 0 49 48" fill="none" xmlns="http://www.w3.org/2000/svg">
<rect x="0.333344" width="48" height="48" rx="24" fill="#72ECA3" fill-opacity="0.5"/>
<path d="M32 32.0004L27.95 27.9504M27.95 27.9504C28.6 27.3003 29.1157 26.5286 29.4675 25.6793C29.8193 24.83 30.0003 23.9197 30.0003 23.0004C30.0003 22.0811 29.8193 21.1708 29.4675 20.3214C29.1157 19.4721 28.6 18.7004 27.95 18.0504C27.2999 17.4003 26.5282 16.8847 25.6789 16.5329C24.8296 16.1811 23.9193 16 23 16C22.0807 16 21.1704 16.1811 20.3211 16.5329C19.4717 16.8847 18.7 17.4003 18.05 18.0504C16.7372 19.3632 15.9996 21.1437 15.9996 23.0004C15.9996 24.857 16.7372 26.6375 18.05 27.9504C19.3628 29.2632 21.1434 30.0007 23 30.0007C24.8566 30.0007 26.6372 29.2632 27.95 27.9504Z" stroke="#00746F" stroke-width="2" stroke-linecap="round" stroke-linejoin="round"/>
</svg>
