<svg width="48" height="48" viewBox="0 0 48 48" fill="none" xmlns="http://www.w3.org/2000/svg">
<rect width="48" height="48" rx="24" fill="#72ECA3" fill-opacity="0.5"/>
<path d="M24 19V22M24 22V25M24 22H21M24 22H27M29 15H19C18.4696 15 17.9609 15.2107 17.5858 15.5858C17.2107 15.9609 17 16.4696 17 17V32.138C17 32.2256 17.023 32.3116 17.0668 32.3874C17.1105 32.4633 17.1733 32.5264 17.2491 32.5703C17.3248 32.6143 17.4108 32.6375 17.4983 32.6378C17.5859 32.6381 17.672 32.6154 17.748 32.572L23.008 29.567C23.3101 29.3944 23.6521 29.3036 24 29.3036C24.3479 29.3036 24.6899 29.3944 24.992 29.567L30.252 32.573C30.3281 32.6165 30.4143 32.6392 30.5019 32.6388C30.5896 32.6385 30.6756 32.6151 30.7514 32.5711C30.8271 32.527 30.89 32.4638 30.9336 32.3878C30.9773 32.3118 31.0001 32.2256 31 32.138V17C31 16.4696 30.7893 15.9609 30.4142 15.5858C30.0391 15.2107 29.5304 15 29 15Z" stroke="#00746F" stroke-width="2" stroke-linecap="round" stroke-linejoin="round"/>
</svg>
